<svg xmlns="http://www.w3.org/2000/svg" xmlns:xlink="http://www.w3.org/1999/xlink" viewBox="0 0 1080 1080"><defs><style>.a{fill:none;}.b{clip-path:url(#a);}.c{fill:#010101;fill-rule:evenodd;}</style><clipPath id="a"><rect class="a" width="1080" height="1080"/></clipPath></defs><title>aeternity-logo-vector-white</title><g class="b"><path class="c" d="M631.66236,455.7981c-34.69232,0-58.47162,21.67651-79.02322,48.533l12.17849,17.7897c18.82712-25.75421,38.83561-46.01752,66.84473-46.01752,32.17258,0,58.92569,23.32111,63.866,53.74411H615.66184V550.1535H716.20356a83.81678,83.81678,0,0,0,.62048-10.1531c0-46.42939-38.2034-84.2023-85.16168-84.2023"/><path class="c" d="M631.66236,603.89581c-34.25342,0-56.85483-29.583-85.54581-72.98739s-55.77281-75.11032-97.7781-75.11032c-46.9591,0-85.16249,37.77291-85.16249,84.2023,0,46.4286,38.20339,84.2015,85.16249,84.2015,34.631,0,58.38839-21.6017,78.9147-48.39259l-12.08931-17.904c-18.8221,25.74241-38.8264,45.99051-66.82539,45.99051-35.67191,0-64.6925-28.66321-64.6925-63.89541s29.02059-63.8971,64.6925-63.8971c34.25259,0,55.6349,28.07651,85.4819,72.91681s55.83591,75.18179,97.842,75.18179a85.28053,85.28053,0,0,0,79.39319-53.74319H688.519a64.86786,64.86786,0,0,1-56.8566,33.4371"/></g></svg>